<svg width="85" height="17" viewBox="0 0 85 17" fill="none" xmlns="http://www.w3.org/2000/svg">
<path d="M6.13281 17C5.07812 17 4.16406 16.8008 3.39062 16.4023C2.61719 15.9961 2.01562 15.4531 1.58594 14.7734C1.16406 14.0938 0.953125 13.3477 0.953125 12.5352V5.41016C0.953125 4.58984 1.16406 3.84375 1.58594 3.17188C2.01562 2.49219 2.61719 1.95312 3.39062 1.55469C4.16406 1.14844 5.07812 0.945312 6.13281 0.945312H9.74219C10.7969 0.945312 11.7109 1.14844 12.4844 1.55469C13.2656 1.95312 13.8672 2.49219 14.2891 3.17188C14.7109 3.84375 14.9219 4.58984 14.9219 5.41016V12.5352C14.9219 13.3477 14.7109 14.0938 14.2891 14.7734C13.8672 15.4531 13.2656 15.9961 12.4844 16.4023C11.7109 16.8008 10.7969 17 9.74219 17H6.13281ZM6.26172 11.6914H11.1016V10.4492H7.50391V2H6.26172V11.6914ZM20.0078 17C18.9531 17 18.0391 16.8008 17.2656 16.4023C16.4922 15.9961 15.8906 15.4531 15.4609 14.7734C15.0391 14.0938 14.8281 13.3477 14.8281 12.5352V5.41016C14.8281 4.58984 15.0391 3.84375 15.4609 3.17188C15.8906 2.49219 16.4922 1.95312 17.2656 1.55469C18.0391 1.14844 18.9531 0.945312 20.0078 0.945312H23.6172C24.6719 0.945312 25.5859 1.14844 26.3594 1.55469C27.1406 1.95312 27.7422 2.49219 28.1641 3.17188C28.5859 3.84375 28.7969 4.58984 28.7969 5.41016V12.5352C28.7969 13.3477 28.5859 14.0938 28.1641 14.7734C27.7422 15.4531 27.1406 15.9961 26.3594 16.4023C25.5859 16.8008 24.6719 17 23.6172 17H20.0078ZM20.1367 11.6914H24.9766V10.4492H21.3789V2H20.1367V11.6914ZM33.8828 17C32.8281 17 31.9141 16.8008 31.1406 16.4023C30.3672 15.9961 29.7656 15.4531 29.3359 14.7734C28.9141 14.0938 28.7031 13.3477 28.7031 12.5352V5.41016C28.7031 4.58984 28.9141 3.84375 29.3359 3.17188C29.7656 2.49219 30.3672 1.95312 31.1406 1.55469C31.9141 1.14844 32.8281 0.945312 33.8828 0.945312H37.4922C38.5469 0.945312 39.4609 1.14844 40.2344 1.55469C41.0156 1.95312 41.6172 2.49219 42.0391 3.17188C42.4609 3.84375 42.6719 4.58984 42.6719 5.41016V12.5352C42.6719 13.3477 42.4609 14.0938 42.0391 14.7734C41.6172 15.4531 41.0156 15.9961 40.2344 16.4023C39.4609 16.8008 38.5469 17 37.4922 17H33.8828ZM34.293 11.6914H36.8594L37.7734 11.5508L38.9336 11.6797V2.89062L38.1367 2.14062L36.9648 2H34.293L32.9219 2.16406L33.2148 3.44141L34.3164 3.21875H36.9297L37.6328 3.37109L37.7969 3.99219V6.72266L36.9648 6.58203H34.293L33.1211 6.75781L32.3711 7.49609L32.207 8.45703V9.82812L32.3711 10.8125L33.1211 11.5508L34.293 11.6914ZM34.3633 10.4492L33.625 10.332L33.4609 9.62891V8.62109L33.5547 7.95312L34.3633 7.83594H36.9062L37.7969 7.92969V10.332L36.8828 10.4492H34.3633ZM47.7578 17C46.7031 17 45.7891 16.8008 45.0156 16.4023C44.2422 15.9961 43.6406 15.4531 43.2109 14.7734C42.7891 14.0938 42.5781 13.3477 42.5781 12.5352V5.41016C42.5781 4.58984 42.7891 3.84375 43.2109 3.17188C43.6406 2.49219 44.2422 1.95312 45.0156 1.55469C45.7891 1.14844 46.7031 0.945312 47.7578 0.945312H51.3672C52.4219 0.945312 53.3359 1.14844 54.1094 1.55469C54.8906 1.95312 55.4922 2.49219 55.9141 3.17188C56.3359 3.84375 56.5469 4.58984 56.5469 5.41016V12.5352C56.5469 13.3477 56.3359 14.0938 55.9141 14.7734C55.4922 15.4531 54.8906 15.9961 54.1094 16.4023C53.3359 16.8008 52.4219 17 51.3672 17H47.7578ZM45.625 11.6914H46.8789V3.34766L47.4531 3.24219H48.7891L49.293 3.34766V8.31641H50.5469V3.34766L51.0508 3.24219H52.3984L52.9727 3.34766V11.6914H54.2148V2.91406L53.4766 2.16406L52.4922 2H50.957L50.3242 2.1875L49.9258 2.99609L49.5391 2.1875L48.8945 2H47.3594L46.375 2.16406L45.625 2.91406V11.6914ZM61.6328 17C60.5781 17 59.6641 16.8008 58.8906 16.4023C58.1172 15.9961 57.5156 15.4531 57.0859 14.7734C56.6641 14.0938 56.4531 13.3477 56.4531 12.5352V5.41016C56.4531 4.58984 56.6641 3.84375 57.0859 3.17188C57.5156 2.49219 58.1172 1.95312 58.8906 1.55469C59.6641 1.14844 60.5781 0.945312 61.6328 0.945312H65.2422C66.2969 0.945312 67.2109 1.14844 67.9844 1.55469C68.7656 1.95312 69.3672 2.49219 69.7891 3.17188C70.2109 3.84375 70.4219 4.58984 70.4219 5.41016V12.5352C70.4219 13.3477 70.2109 14.0938 69.7891 14.7734C69.3672 15.4531 68.7656 15.9961 67.9844 16.4023C67.2109 16.8008 66.2969 17 65.2422 17H61.6328ZM62.043 11.6914H64.6094L65.5234 11.5508L66.6836 11.6797V2.89062L65.8867 2.14062L64.7148 2H62.043L60.6719 2.16406L60.9648 3.44141L62.0664 3.21875H64.6797L65.3828 3.37109L65.5469 3.99219V6.72266L64.7148 6.58203H62.043L60.8711 6.75781L60.1211 7.49609L59.957 8.45703V9.82812L60.1211 10.8125L60.8711 11.5508L62.043 11.6914ZM62.1133 10.4492L61.375 10.332L61.2109 9.62891V8.62109L61.3047 7.95312L62.1133 7.83594H64.6562L65.5469 7.92969V10.332L64.6328 10.4492H62.1133ZM75.5078 17C74.4531 17 73.5391 16.8008 72.7656 16.4023C71.9922 15.9961 71.3906 15.4531 70.9609 14.7734C70.5391 14.0938 70.3281 13.3477 70.3281 12.5352V5.41016C70.3281 4.58984 70.5391 3.84375 70.9609 3.17188C71.3906 2.49219 71.9922 1.95312 72.7656 1.55469C73.5391 1.14844 74.4531 0.945312 75.5078 0.945312H79.1172C80.1719 0.945312 81.0859 1.14844 81.8594 1.55469C82.6406 1.95312 83.2422 2.49219 83.6641 3.17188C84.0859 3.84375 84.2969 4.58984 84.2969 5.41016V12.5352C84.2969 13.3477 84.0859 14.0938 83.6641 14.7734C83.2422 15.4531 82.6406 15.9961 81.8594 16.4023C81.0859 16.8008 80.1719 17 79.1172 17H75.5078ZM74.4062 11.6914H75.6602V7.78906H78.707L79.5391 8.16406L79.7148 8.79688V11.6914H80.957V8.66797L80.5469 7.58984L79.2109 7.10938L80.5 6.48828L80.8633 5.43359V4.13281L80.7227 3.14844L79.9492 2.16406L78.7773 2H74.4062V11.6914ZM75.6602 6.53516V3.24219H78.707L79.5391 3.60547L79.6211 4.28516V5.52734L79.4453 6.17188L78.707 6.53516H75.6602Z" fill="white"/>
</svg>
