<svg width="57" height="23" viewBox="0 0 57 23" fill="none" xmlns="http://www.w3.org/2000/svg">
<path d="M6.13281 23C5.07812 23 4.16406 22.8008 3.39062 22.4023C2.61719 21.9961 2.01562 21.4531 1.58594 20.7734C1.16406 20.0938 0.953125 19.3477 0.953125 18.5352V11.4102C0.953125 10.5898 1.16406 9.84375 1.58594 9.17188C2.01562 8.49219 2.61719 7.95312 3.39062 7.55469C4.16406 7.14844 5.07812 6.94531 6.13281 6.94531H9.74219C10.7969 6.94531 11.7109 7.14844 12.4844 7.55469C13.2656 7.95312 13.8672 8.49219 14.2891 9.17188C14.7109 9.84375 14.9219 10.5898 14.9219 11.4102V18.5352C14.9219 19.3477 14.7109 20.0938 14.2891 20.7734C13.8672 21.4531 13.2656 21.9961 12.4844 22.4023C11.7109 22.8008 10.7969 23 9.74219 23H6.13281ZM4 17.6914H5.25391V9.34766L5.82812 9.24219H7.16406L7.66797 9.34766V14.3164H8.92188V9.34766L9.42578 9.24219H10.7734L11.3477 9.34766V17.6914H12.5898V8.91406L11.8516 8.16406L10.8672 8H9.33203L8.69922 8.1875L8.30078 8.99609L7.91406 8.1875L7.26953 8H5.73438L4.75 8.16406L4 8.91406V17.6914ZM20.0078 23C18.9531 23 18.0391 22.8008 17.2656 22.4023C16.4922 21.9961 15.8906 21.4531 15.4609 20.7734C15.0391 20.0938 14.8281 19.3477 14.8281 18.5352V11.4102C14.8281 10.5898 15.0391 9.84375 15.4609 9.17188C15.8906 8.49219 16.4922 7.95312 17.2656 7.55469C18.0391 7.14844 18.9531 6.94531 20.0078 6.94531H23.6172C24.6719 6.94531 25.5859 7.14844 26.3594 7.55469C27.1406 7.95312 27.7422 8.49219 28.1641 9.17188C28.5859 9.84375 28.7969 10.5898 28.7969 11.4102V18.5352C28.7969 19.3477 28.5859 20.0938 28.1641 20.7734C27.7422 21.4531 27.1406 21.9961 26.3594 22.4023C25.5859 22.8008 24.6719 23 23.6172 23H20.0078ZM20.5117 17.3164H23.4648L24.8359 17.1406L24.543 15.875L23.4414 16.0625H20.5938L19.8438 15.9453L19.6797 15.2422V12.8281H25.1523V9.875L24.9766 8.89062L24.2383 8.14062L23.0547 8H20.5117L19.3398 8.14062L18.6016 8.89062L18.4258 9.875V15.4414L18.6016 16.4258L19.3398 17.1641L20.5117 17.3164ZM19.6797 11.5977V10.0156L19.7734 9.34766L20.5938 9.21875H22.9844L23.7812 9.34766L23.8984 10.0391V11.5977H19.6797ZM33.8828 23C32.8281 23 31.9141 22.8008 31.1406 22.4023C30.3672 21.9961 29.7656 21.4531 29.3359 20.7734C28.9141 20.0938 28.7031 19.3477 28.7031 18.5352V11.4102C28.7031 10.5898 28.9141 9.84375 29.3359 9.17188C29.7656 8.49219 30.3672 7.95312 31.1406 7.55469C31.9141 7.14844 32.8281 6.94531 33.8828 6.94531H37.4922C38.5469 6.94531 39.4609 7.14844 40.2344 7.55469C41.0156 7.95312 41.6172 8.49219 42.0391 9.17188C42.4609 9.84375 42.6719 10.5898 42.6719 11.4102V18.5352C42.6719 19.3477 42.4609 20.0938 42.0391 20.7734C41.6172 21.4531 41.0156 21.9961 40.2344 22.4023C39.4609 22.8008 38.5469 23 37.4922 23H33.8828ZM32.5234 17.6914H33.7656V9.37109L34.6797 9.21875H37.4922L38.3008 9.34766L38.418 10.0391V17.6914H39.6719V9.875L39.5078 8.89062L38.7578 8.14062L37.5625 8H34.6328L32.5234 8.29297V17.6914ZM47.7578 23C46.7031 23 45.7891 22.8008 45.0156 22.4023C44.2422 21.9961 43.6406 21.4531 43.2109 20.7734C42.7891 20.0938 42.5781 19.3477 42.5781 18.5352V11.4102C42.5781 10.5898 42.7891 9.84375 43.2109 9.17188C43.6406 8.49219 44.2422 7.95312 45.0156 7.55469C45.7891 7.14844 46.7031 6.94531 47.7578 6.94531H51.3672C52.4219 6.94531 53.3359 7.14844 54.1094 7.55469C54.8906 7.95312 55.4922 8.49219 55.9141 9.17188C56.3359 9.84375 56.5469 10.5898 56.5469 11.4102V18.5352C56.5469 19.3477 56.3359 20.0938 55.9141 20.7734C55.4922 21.4531 54.8906 21.9961 54.1094 22.4023C53.3359 22.8008 52.4219 23 51.3672 23H47.7578ZM48.4609 17.6914H51.6016L52.7969 17.5508L53.5469 16.8125L53.7109 15.8047V8H52.4688V15.6758L52.293 16.332L51.5312 16.4492H48.5312L47.7578 16.332L47.5938 15.6289V8H46.375V15.8047L46.5156 16.8125L47.2773 17.5508L48.4609 17.6914ZM48.6367 7.84766C48.2773 7.69141 47.9492 7.4375 47.6523 7.08594C47.3633 6.73438 47.2188 6.32422 47.2188 5.85547C47.2188 5.74609 47.2422 5.55469 47.2891 5.28125C47.3438 5.00781 47.457 4.56641 47.6289 3.95703C47.8086 3.34766 48.0781 2.48828 48.4375 1.37891C48.625 0.886719 48.9727 0.542969 49.4805 0.347656C49.9961 0.152344 50.5859 0.0546875 51.25 0.0546875C51.8359 0.0546875 52.3906 0.144531 52.9141 0.324219C53.4453 0.503906 53.875 0.769531 54.2031 1.12109C54.5391 1.46484 54.707 1.89453 54.707 2.41016C54.707 2.87891 54.5391 3.39844 54.2031 3.96875L52.3516 7.13281C52.2578 7.28906 52.1719 7.42578 52.0938 7.54297C52.0156 7.66016 51.9336 7.76172 51.8477 7.84766H48.6367ZM49.5508 6.00781H50.3594L52.1406 2.09375H50.7227L49.5508 6.00781Z" fill="white"/>
</svg>
